<svg id="Layer_1" data-name="Layer 1" xmlns="http://www.w3.org/2000/svg" xmlns:xlink="http://www.w3.org/1999/xlink" viewBox="0 0 200 200"><defs><style>.cls-1,.cls-2{font-size:19.02px;opacity:0.67;}.cls-1,.cls-57{font-family:CocogoosePro-Thin, Cocogoose Pro;}.cls-2{font-family:COCOGOOSE-DemiBold, COCOGOOSE;font-weight:700;}.cls-3{fill:url(#linear-gradient);}.cls-4{fill:url(#linear-gradient-3);}.cls-5{fill:url(#linear-gradient-5);}.cls-6{fill:url(#linear-gradient-7);}.cls-7{fill:url(#linear-gradient-9);}.cls-8{fill:url(#linear-gradient-11);}.cls-9{fill:url(#linear-gradient-13);}.cls-10{fill:url(#linear-gradient-15);}.cls-11{fill:url(#linear-gradient-17);}.cls-12{fill:url(#linear-gradient-19);}.cls-13{fill:url(#linear-gradient-21);}.cls-14{fill:url(#linear-gradient-23);}.cls-15{fill:url(#linear-gradient-25);}.cls-16{fill:url(#linear-gradient-27);}.cls-17{fill:url(#linear-gradient-29);}.cls-18{fill:url(#linear-gradient-31);}.cls-19{fill:url(#linear-gradient-33);}.cls-20{fill:url(#linear-gradient-35);}.cls-21{fill:url(#linear-gradient-37);}.cls-22{fill:url(#linear-gradient-39);}.cls-23{fill:url(#linear-gradient-41);}.cls-24{fill:url(#linear-gradient-43);}.cls-25{fill:url(#linear-gradient-45);}.cls-26{fill:url(#linear-gradient-47);}.cls-27{fill:url(#linear-gradient-49);}.cls-28{fill:url(#linear-gradient-51);}.cls-29{fill:url(#linear-gradient-53);}.cls-30{fill:url(#linear-gradient-55);}.cls-31{fill:url(#linear-gradient-57);}.cls-32{fill:url(#linear-gradient-59);}.cls-33{fill:url(#linear-gradient-61);}.cls-34{fill:url(#linear-gradient-63);}.cls-35{fill:url(#linear-gradient-65);}.cls-36{fill:url(#linear-gradient-67);}.cls-37{fill:url(#linear-gradient-69);}.cls-38{fill:url(#linear-gradient-71);}.cls-39{fill:url(#linear-gradient-73);}.cls-40{fill:url(#linear-gradient-75);}.cls-41{fill:url(#linear-gradient-77);}.cls-42{fill:url(#linear-gradient-79);}.cls-43{fill:url(#linear-gradient-81);}.cls-44{fill:url(#linear-gradient-83);}.cls-45{fill:url(#linear-gradient-85);}.cls-46{fill:url(#linear-gradient-87);}.cls-47{fill:url(#linear-gradient-89);}.cls-48{fill:url(#linear-gradient-91);}.cls-49{fill:url(#linear-gradient-93);}.cls-50{fill:url(#linear-gradient-95);}.cls-51{fill:url(#linear-gradient-97);}.cls-52{fill:url(#linear-gradient-99);}.cls-53{fill:url(#linear-gradient-101);}.cls-54{fill:url(#linear-gradient-103);}.cls-55{fill:url(#linear-gradient-105);}.cls-56{fill:url(#linear-gradient-107);}.cls-57{font-size:13.49px;}.cls-58{letter-spacing:-0.14em;}</style><linearGradient id="linear-gradient" x1="-51.72" y1="290.62" x2="-51.54" y2="290.44" gradientTransform="matrix(121.58, -340.87, -37.28, -13.3, 17244.74, -13607.22)" gradientUnits="userSpaceOnUse"><stop offset="0" stop-color="#2e8c08"/><stop offset="1" stop-color="#268704"/></linearGradient><linearGradient id="linear-gradient-3" x1="-51.79" y1="263.21" x2="-51.7" y2="263.11" gradientTransform="matrix(118.1, -331.13, -121.16, -43.22, 38133.14, -5630.95)" gradientUnits="userSpaceOnUse"><stop offset="0" stop-color="#288b07"/><stop offset="1" stop-color="#50aa0d"/></linearGradient><linearGradient id="linear-gradient-5" x1="-52.41" y1="252.66" x2="-52.32" y2="252.57" gradientTransform="matrix(175.42, -491.82, -519.39, -185.25, 140511.06, 21096.19)" gradientUnits="userSpaceOnUse"><stop offset="0" stop-color="#83c310"/><stop offset="1" stop-color="#c1e117"/></linearGradient><linearGradient id="linear-gradient-7" x1="-49.93" y1="252.78" x2="-49.82" y2="252.68" gradientTransform="matrix(163.26, -457.74, -327.9, -116.95, 91045.27, 6874.55)" gradientUnits="userSpaceOnUse"><stop offset="0" stop-color="#58ad1f"/><stop offset="1" stop-color="#80c916"/></linearGradient><linearGradient id="linear-gradient-9" x1="-51.66" y1="253.86" x2="-51.57" y2="253.77" gradientTransform="matrix(100.45, -281.62, -231.31, -82.5, 63944.23, 6540.47)" gradientUnits="userSpaceOnUse"><stop offset="0" stop-color="#5eb905"/><stop offset="1" stop-color="#77c605"/></linearGradient><linearGradient id="linear-gradient-11" x1="-53.87" y1="252.67" x2="-53.77" y2="252.58" gradientTransform="matrix(62.24, -174.49, -329.6, -117.56, 86660.57, 20438.4)" gradientUnits="userSpaceOnUse"><stop offset="0" stop-color="#85cc05"/><stop offset="1" stop-color="#79c704"/></linearGradient><linearGradient id="linear-gradient-13" x1="-51.65" y1="252.66" x2="-51.55" y2="252.56" gradientTransform="matrix(129.39, -362.78, -329.6, -117.56, 89991.19, 11098.02)" gradientUnits="userSpaceOnUse"><stop offset="0" stop-color="#85cc04"/><stop offset="1" stop-color="#95d607"/></linearGradient><linearGradient id="linear-gradient-15" x1="-50.84" y1="253.29" x2="-50.75" y2="253.19" gradientTransform="matrix(160.36, -449.62, -463.47, -165.31, 125625.56, 19164.43)" gradientUnits="userSpaceOnUse"><stop offset="0" stop-color="#3c9d08"/><stop offset="1" stop-color="#3d9f06"/></linearGradient><linearGradient id="linear-gradient-17" x1="-52.71" y1="263.16" x2="-52.61" y2="263.06" gradientTransform="matrix(116.94, -327.88, -121.16, -43.22, 38185.52, -5775.81)" gradientUnits="userSpaceOnUse"><stop offset="0" stop-color="#68b60e"/><stop offset="1" stop-color="#45a104"/></linearGradient><linearGradient id="linear-gradient-19" x1="-50.58" y1="264.29" x2="-50.46" y2="264.17" gradientTransform="matrix(275.57, -772.63, -115.23, -41.1, 44532.84, -28075.72)" gradientUnits="userSpaceOnUse"><stop offset="0" stop-color="#6dbc0e"/><stop offset="1" stop-color="#47a306"/></linearGradient><linearGradient id="linear-gradient-21" x1="-52.86" y1="252.74" x2="-52.77" y2="252.65" gradientTransform="matrix(103.34, -289.74, -341.46, -121.79, 91803.46, 15579.12)" gradientUnits="userSpaceOnUse"><stop offset="0" stop-color="#86c804"/><stop offset="1" stop-color="#b3df07"/></linearGradient><linearGradient id="linear-gradient-23" x1="-52.89" y1="252.71" x2="-52.8" y2="252.62" xlink:href="#linear-gradient-21"/><linearGradient id="linear-gradient-25" x1="-52.55" y1="256.38" x2="-52.46" y2="256.29" gradientTransform="matrix(112.02, -314.08, -152.51, -54.4, 45053.32, -2440.06)" gradientUnits="userSpaceOnUse"><stop offset="0" stop-color="#83c503"/><stop offset="1" stop-color="#9ad203"/></linearGradient><linearGradient id="linear-gradient-27" x1="-52.57" y1="256.36" x2="-52.48" y2="256.27" xlink:href="#linear-gradient-25"/><linearGradient id="linear-gradient-29" x1="-67.56" y1="256.35" x2="-67.47" y2="256.26" gradientTransform="matrix(26.63, -74.67, -152.51, -54.4, 40971.95, 9001.59)" gradientUnits="userSpaceOnUse"><stop offset="0" stop-color="#b0db03"/><stop offset="1" stop-color="#9bd302"/></linearGradient><linearGradient id="linear-gradient-31" x1="-52.35" y1="252.72" x2="-52.26" y2="252.63" gradientTransform="matrix(107.97, -302.72, -341.46, -121.79, 91988.91, 15059.66)" gradientUnits="userSpaceOnUse"><stop offset="0" stop-color="#82c904"/><stop offset="1" stop-color="#a4db06"/></linearGradient><linearGradient id="linear-gradient-33" x1="-51.72" y1="290.63" x2="-51.53" y2="290.44" xlink:href="#linear-gradient"/><linearGradient id="linear-gradient-35" x1="-51.79" y1="263.22" x2="-51.69" y2="263.12" xlink:href="#linear-gradient-3"/><linearGradient id="linear-gradient-37" x1="-53.69" y1="262.67" x2="-53.59" y2="262.56" gradientTransform="matrix(107.39, -301.1, -78.8, -28.1, 26550.07, -8675.59)" gradientUnits="userSpaceOnUse"><stop offset="0" stop-color="#a5da07"/><stop offset="1" stop-color="#acdb07"/></linearGradient><linearGradient id="linear-gradient-39" x1="-53.68" y1="262.68" x2="-53.58" y2="262.57" xlink:href="#linear-gradient-37"/><linearGradient id="linear-gradient-41" x1="-53.59" y1="253.65" x2="-53.5" y2="253.55" gradientTransform="matrix(131.42, -368.46, -371.96, -132.67, 101498.49, 13995.12)" gradientUnits="userSpaceOnUse"><stop offset="0" stop-color="#93cc07"/><stop offset="1" stop-color="#a3d408"/></linearGradient><linearGradient id="linear-gradient-43" x1="-53.57" y1="253.66" x2="-53.48" y2="253.57" xlink:href="#linear-gradient-41"/><linearGradient id="linear-gradient-45" x1="-52.46" y1="253.38" x2="-52.36" y2="253.28" gradientTransform="matrix(175.42, -491.82, -299.1, -106.68, 85065.26, 1320.64)" gradientUnits="userSpaceOnUse"><stop offset="0" stop-color="#b2e57b"/><stop offset="1" stop-color="#bce411"/></linearGradient><linearGradient id="linear-gradient-47" x1="-52.43" y1="252.65" x2="-52.33" y2="252.56" xlink:href="#linear-gradient-5"/><linearGradient id="linear-gradient-49" x1="-53.73" y1="253.38" x2="-53.63" y2="253.28" gradientTransform="matrix(127.94, -358.72, -299.1, -106.68, 82739.36, 7842.59)" gradientUnits="userSpaceOnUse"><stop offset="0" stop-color="#b2e005"/><stop offset="1" stop-color="#b3e161"/></linearGradient><linearGradient id="linear-gradient-51" x1="-51.67" y1="253.86" x2="-51.57" y2="253.77" xlink:href="#linear-gradient-9"/><linearGradient id="linear-gradient-53" x1="-54.81" y1="260.09" x2="-54.71" y2="260" gradientTransform="matrix(89.45, -250.78, -99.13, -35.36, 30773.15, -4448.02)" gradientUnits="userSpaceOnUse"><stop offset="0" stop-color="#afde08"/><stop offset="1" stop-color="#d1ee07"/></linearGradient><linearGradient id="linear-gradient-55" x1="-54.8" y1="260.1" x2="-54.71" y2="260" xlink:href="#linear-gradient-53"/><linearGradient id="linear-gradient-57" x1="-65.95" y1="255.02" x2="-65.86" y2="254.93" gradientTransform="matrix(33.87, -94.96, -200.81, -71.62, 53528, 12085.55)" gradientUnits="userSpaceOnUse"><stop offset="0" stop-color="#cee90c"/><stop offset="1" stop-color="#bee117"/></linearGradient><linearGradient id="linear-gradient-59" x1="-53.87" y1="252.67" x2="-53.77" y2="252.58" xlink:href="#linear-gradient-11"/><linearGradient id="linear-gradient-61" x1="-51.65" y1="252.65" x2="-51.56" y2="252.55" xlink:href="#linear-gradient-13"/><linearGradient id="linear-gradient-63" x1="-51.63" y1="254.7" x2="-51.53" y2="254.6" gradientTransform="matrix(100.45, -281.62, -232.16, -82.8, 64367, 6691.3)" gradientUnits="userSpaceOnUse"><stop offset="0" stop-color="#59b504"/><stop offset="1" stop-color="#5eb606"/></linearGradient><linearGradient id="linear-gradient-65" x1="-50.84" y1="253.29" x2="-50.75" y2="253.2" xlink:href="#linear-gradient-15"/><linearGradient id="linear-gradient-67" x1="-51.63" y1="254.68" x2="-51.54" y2="254.59" gradientTransform="matrix(111.73, -313.27, -232.16, -82.8, 64950.38, 5054.33)" gradientUnits="userSpaceOnUse"><stop offset="0" stop-color="#5dae05"/><stop offset="1" stop-color="#52a807"/></linearGradient><linearGradient id="linear-gradient-69" x1="-52.7" y1="263.16" x2="-52.6" y2="263.07" xlink:href="#linear-gradient-17"/><linearGradient id="linear-gradient-71" x1="-50.58" y1="264.3" x2="-50.46" y2="264.17" xlink:href="#linear-gradient-19"/><linearGradient id="linear-gradient-73" x1="-52.16" y1="262.46" x2="-52.06" y2="262.36" gradientTransform="matrix(140.39, -393.62, -123.71, -44.12, 39921.35, -8817.1)" gradientUnits="userSpaceOnUse"><stop offset="0" stop-color="#47a304"/><stop offset="1" stop-color="#56ac04"/></linearGradient><linearGradient id="linear-gradient-75" x1="-52.55" y1="256.74" x2="-52.45" y2="256.64" gradientTransform="matrix(112.02, -314.08, -157.6, -56.21, 46420.7, -1952.12)" gradientUnits="userSpaceOnUse"><stop offset="0" stop-color="#77c205"/><stop offset="1" stop-color="#8ccd05"/></linearGradient><linearGradient id="linear-gradient-77" x1="-52.56" y1="256.73" x2="-52.46" y2="256.63" xlink:href="#linear-gradient-75"/><linearGradient id="linear-gradient-79" x1="-52.18" y1="253.19" x2="-52.09" y2="253.1" gradientTransform="matrix(140.39, -393.62, -471.1, -168.03, 126706.13, 22136.99)" gradientUnits="userSpaceOnUse"><stop offset="0" stop-color="#4da804"/><stop offset="1" stop-color="#73bd05"/></linearGradient><linearGradient id="linear-gradient-81" x1="-52.15" y1="253.23" x2="-52.05" y2="253.13" xlink:href="#linear-gradient-79"/><linearGradient id="linear-gradient-83" x1="-52.55" y1="260.89" x2="-52.45" y2="260.78" gradientTransform="matrix(134.6, -377.39, -96.59, -34.45, 32361.25, -10731.19)" gradientUnits="userSpaceOnUse"><stop offset="0" stop-color="#9cd503"/><stop offset="1" stop-color="#aedc05"/></linearGradient><linearGradient id="linear-gradient-85" x1="-52.54" y1="260.91" x2="-52.43" y2="260.8" xlink:href="#linear-gradient-83"/><linearGradient id="linear-gradient-87" x1="-52.57" y1="260.88" x2="-52.46" y2="260.77" xlink:href="#linear-gradient-83"/><linearGradient id="linear-gradient-89" x1="-52.3" y1="253.54" x2="-52.21" y2="253.45" gradientTransform="matrix(144.44, -404.98, -410.94, -146.57, 111840.33, 16092.08)" gradientUnits="userSpaceOnUse"><stop offset="0" stop-color="#56a807"/><stop offset="1" stop-color="#77bd07"/></linearGradient><linearGradient id="linear-gradient-91" x1="-52.27" y1="253.75" x2="-52.18" y2="253.66" gradientTransform="matrix(144.44, -404.98, -364.34, -129.95, 100087.33, 11900.2)" gradientUnits="userSpaceOnUse"><stop offset="0" stop-color="#8aca05"/><stop offset="1" stop-color="#73bf04"/></linearGradient><linearGradient id="linear-gradient-93" x1="-52.29" y1="253.73" x2="-52.2" y2="253.64" xlink:href="#linear-gradient-91"/><linearGradient id="linear-gradient-95" x1="-50.51" y1="256.23" x2="-50.41" y2="256.13" gradientTransform="matrix(196.55, -551.07, -172.85, -61.65, 54277.94, -11885.54)" gradientUnits="userSpaceOnUse"><stop offset="0" stop-color="#5cb408"/><stop offset="1" stop-color="#81c805"/></linearGradient><linearGradient id="linear-gradient-97" x1="-50.47" y1="253.25" x2="-50.38" y2="253.16" gradientTransform="matrix(196.55, -551.07, -471.1, -168.03, 129297.04, 14870.93)" gradientUnits="userSpaceOnUse"><stop offset="0" stop-color="#68b908"/><stop offset="1" stop-color="#73bd05"/></linearGradient><linearGradient id="linear-gradient-99" x1="-50.49" y1="253.23" x2="-50.4" y2="253.14" xlink:href="#linear-gradient-97"/><linearGradient id="linear-gradient-101" x1="-54.41" y1="253.1" x2="-54.31" y2="253" gradientTransform="matrix(85.39, -239.42, -241.48, -86.13, 65804.14, 8875.55)" gradientUnits="userSpaceOnUse"><stop offset="0" stop-color="#d1f10b"/><stop offset="1" stop-color="#aee00a"/></linearGradient><linearGradient id="linear-gradient-103" x1="-54.41" y1="253.35" x2="-54.32" y2="253.26" gradientTransform="matrix(85.39, -239.42, -249.95, -89.15, 68022.05, 9666.72)" gradientUnits="userSpaceOnUse"><stop offset="0" stop-color="#c3ea09"/><stop offset="1" stop-color="#a1d808"/></linearGradient><linearGradient id="linear-gradient-105" x1="-59.22" y1="254.41" x2="-59.13" y2="254.32" gradientTransform="matrix(48.34, -135.53, -213.52, -76.16, 57249.92, 11445.09)" gradientUnits="userSpaceOnUse"><stop offset="0" stop-color="#a9d906"/><stop offset="1" stop-color="#93cf07"/></linearGradient><linearGradient id="linear-gradient-107" x1="-57.69" y1="254.38" x2="-57.59" y2="254.29" gradientTransform="matrix(59.92, -168, -213.52, -76.16, 57843.18, 9778.8)" gradientUnits="userSpaceOnUse"><stop offset="0" stop-color="#9ad10a"/><stop offset="1" stop-color="#addb0b"/></linearGradient></defs><title>Artboard 1</title><text class="cls-1" transform="matrix(0.59, -0.86, 0.83, 0.56, 31.52, 84.69)"> </text><text class="cls-2" transform="matrix(0.71, -0.76, 0.73, 0.68, 34.25, 79.63)">W</text><text class="cls-2" transform="matrix(0.85, -0.6, 0.57, 0.82, 48.37, 64.72)">O</text><text class="cls-2" transform="translate(61.84 55.2) rotate(-24.16) scale(1.04 1)">O</text><text class="cls-2" transform="translate(76.91 48.47) rotate(-13.76) scale(1.04 1)">D</text><text class="cls-2" transform="translate(91.19 44.91) rotate(-3.75) scale(1.04 1)">H</text><text class="cls-2" transform="matrix(1.03, 0.11, -0.11, 0.99, 106.14, 43.91)">A</text><text class="cls-2" transform="translate(120.3 45.35) rotate(16.57) scale(1.04 1)">N</text><text class="cls-2" transform="translate(135.01 49.7) rotate(27.34) scale(1.04 1)">D</text><text class="cls-2" transform="matrix(0.83, 0.62, -0.6, 0.8, 148.04, 56.56)">L</text><text class="cls-2" transform="translate(156.92 63.07) rotate(45.26) scale(1.04 1)">E</text><text class="cls-2" transform="translate(165.75 71.87) rotate(54.51) scale(1.04 1)">R</text><text class="cls-2" transform="matrix(0.5, 0.91, -0.88, 0.48, 173.32, 82.85)"> </text><text class="cls-2" transform="translate(176.16 88.05) rotate(65.84) scale(1.04 1)"> </text><text class="cls-2" transform="translate(178.6 93.47) rotate(70.16) scale(1.04 1)"> </text><text class="cls-2" transform="translate(180.63 99.06) rotate(74.46) scale(1.04 1)"> </text><text class="cls-2" transform="matrix(0.2, 1.02, -0.98, 0.2, 182.22, 104.76)"> </text><text class="cls-2" transform="matrix(0.13, 1.03, -0.99, 0.12, 183.39, 110.59)"> </text><text class="cls-2" transform="matrix(0.05, 1.04, -1, 0.05, 184.14, 116.49)"> </text><path class="cls-3" d="M136.34,128.13,135,130.81l.66-.22,1-2.62Z"/><path class="cls-3" d="M136.34,128.13,135,130.81l.66-.22,1-2.62Z"/><path class="cls-4" d="M136.63,128l-1,2.62a48.12,48.12,0,0,0,5.7-2.39l-3-1.26Z"/><path class="cls-4" d="M136.63,128l-1,2.62a48.12,48.12,0,0,0,5.7-2.39l-3-1.26Z"/><path class="cls-5" d="M113.11,55.78l-.73.22h.46Z"/><path class="cls-5" d="M113.11,55.78l-.73.22h.46Z"/><path class="cls-6" d="M39.39,146.11c2.14,0,4.46-1.18,7.38-2.82l-9.35-6.44C36.37,141.91,36.77,146.11,39.39,146.11Z"/><path class="cls-6" d="M39.39,146.11c2.14,0,4.46-1.18,7.38-2.82l-9.35-6.44C36.37,141.91,36.77,146.11,39.39,146.11Z"/><path class="cls-7" d="M37.45,136.73l0,.12,9.35,6.44,1.69-1c-.15-2.75-.28-5.65-.37-8.66Z"/><path class="cls-7" d="M37.45,136.73l0,.12,9.35,6.44,1.69-1c-.15-2.75-.28-5.65-.37-8.66Z"/><path class="cls-8" d="M48,127.92l-7.15-.62a37.88,37.88,0,0,0-3.39,9.42l10.65-3.07C48,131.78,48,129.87,48,127.92Z"/><path class="cls-8" d="M48,127.92l-7.15-.62a37.88,37.88,0,0,0-3.39,9.42l10.65-3.07C48,131.78,48,129.87,48,127.92Z"/><path class="cls-9" d="M48.08,119.3a26.07,26.07,0,0,0-2.61,1.88,20.08,20.08,0,0,0-4.63,6.13l7.15.62C48,125.09,48,122.19,48.08,119.3Z"/><path class="cls-9" d="M48.08,119.3a26.07,26.07,0,0,0-2.61,1.88,20.08,20.08,0,0,0-4.63,6.13l7.15.62C48,125.09,48,122.19,48.08,119.3Z"/><path class="cls-10" d="M127.93,132.66a58.64,58.64,0,0,0,7.06-1.85l1.35-2.68C133.7,129.63,130.88,131.15,127.93,132.66Z"/><path class="cls-10" d="M127.93,132.66a58.64,58.64,0,0,0,7.06-1.85l1.35-2.68C133.7,129.63,130.88,131.15,127.93,132.66Z"/><path class="cls-11" d="M138.39,126.94l3,1.26.68-.34a36.65,36.65,0,0,0,8.11-6.23l1-3.71A78,78,0,0,1,138.39,126.94Z"/><path class="cls-11" d="M138.39,126.94l3,1.26.68-.34a36.65,36.65,0,0,0,8.11-6.23l1-3.71A78,78,0,0,1,138.39,126.94Z"/><path class="cls-12" d="M152.79,116.34q-.73.78-1.6,1.58l-1,3.71C152.22,119.5,153.54,117.43,152.79,116.34Z"/><path class="cls-12" d="M152.79,116.34q-.73.78-1.6,1.58l-1,3.71C152.22,119.5,153.54,117.43,152.79,116.34Z"/><path class="cls-13" d="M74.25,100.79c.33.23.67.45,1,.65l.07-.73Z"/><path class="cls-13" d="M74.25,100.79c.33.23.67.45,1,.65l.07-.73Z"/><path class="cls-14" d="M74,114.73c-.74-.09-1.47-.17-2.22-.24a48.69,48.69,0,0,0-8.64,0l10.11,8Z"/><path class="cls-14" d="M74,114.73c-.74-.09-1.47-.17-2.22-.24a48.69,48.69,0,0,0-8.64,0l10.11,8Z"/><path class="cls-15" d="M75.33,100.72l-.07.73A15,15,0,0,0,79,103.12a39.79,39.79,0,0,0,7.18.82c.88.08,1.75.21,2.62.36l1.73-2Z"/><path class="cls-15" d="M75.33,100.72l-.07.73A15,15,0,0,0,79,103.12a39.79,39.79,0,0,0,7.18.82c.88.08,1.75.21,2.62.36l1.73-2Z"/><path class="cls-16" d="M79.19,115.55c-1.72-.33-3.45-.61-5.19-.83l-.74,7.77Z"/><path class="cls-16" d="M79.19,115.55c-1.72-.33-3.45-.61-5.19-.83l-.74,7.77Z"/><polygon class="cls-17" points="75.33 100.72 90.52 102.27 88.8 98.02 75.33 100.72"/><polygon class="cls-17" points="75.33 100.72 90.52 102.27 88.8 98.02 75.33 100.72"/><path class="cls-18" d="M73.27,122.5l-10.11-8a38.83,38.83,0,0,0-7.41,1.39l7.68,13.37Z"/><path class="cls-18" d="M73.27,122.5l-10.11-8a38.83,38.83,0,0,0-7.41,1.39l7.68,13.37Z"/><path class="cls-19" d="M136.34,128.13l.28-.16.57-1.53Z"/><path class="cls-19" d="M136.34,128.13l.28-.16.57-1.53Z"/><path class="cls-20" d="M136.63,128l1.76-1-1.2-.51Z"/><path class="cls-20" d="M136.63,128l1.76-1-1.2-.51Z"/><path class="cls-21" d="M96.88,90.46a12.64,12.64,0,0,1,.29,3l8.23-10.94Z"/><path class="cls-21" d="M96.88,90.46a12.64,12.64,0,0,1,.29,3l8.23-10.94Z"/><path class="cls-22" d="M90.52,102.27l1.66-2.21a37,37,0,0,0-2.4-3l-1,.92Z"/><path class="cls-22" d="M90.52,102.27l1.66-2.21a37,37,0,0,0-2.4-3l-1,.92Z"/><path class="cls-23" d="M131.27,85.78c.7-3.68,1.5-7.73,4.44-10a139.39,139.39,0,0,0-14.09,2.55c-3.73.88-7.51,1.94-10.66,4.12-.38.26-.75.54-1.11.84l21.22,3.5Z"/><path class="cls-23" d="M131.27,85.78c.7-3.68,1.5-7.73,4.44-10a139.39,139.39,0,0,0-14.09,2.55c-3.73.88-7.51,1.94-10.66,4.12-.38.26-.75.54-1.11.84l21.22,3.5Z"/><path class="cls-24" d="M105.77,82.57l.15-.25-.53.19Z"/><path class="cls-24" d="M105.77,82.57l.15-.25-.53.19Z"/><path class="cls-25" d="M108.3,57.31c-4.47,1.59-8.72,3.74-11.42,7.49l8.51,17.69Z"/><path class="cls-25" d="M108.3,57.31c-4.47,1.59-8.72,3.74-11.42,7.49l8.51,17.69Z"/><path class="cls-26" d="M105.92,82.31a15.47,15.47,0,0,0,.78-1.51c1.79-4.05,1.45-8.66,1.65-13.09s1.17-9,4.48-11.7h-.46c-1.35.41-2.72.83-4.07,1.31L105.39,82.5Z"/><path class="cls-26" d="M105.92,82.31a15.47,15.47,0,0,0,.78-1.51c1.79-4.05,1.45-8.66,1.65-13.09s1.17-9,4.48-11.7h-.46c-1.35.41-2.72.83-4.07,1.31L105.39,82.5Z"/><path class="cls-27" d="M96.89,64.81c-.09.13-.2.26-.29.39a18.41,18.41,0,0,0-2.71,10.91,30.11,30.11,0,0,0,.32,3.3l11.18,3.09Z"/><path class="cls-27" d="M96.89,64.81c-.09.13-.2.26-.29.39a18.41,18.41,0,0,0-2.71,10.91,30.11,30.11,0,0,0,.32,3.3l11.18,3.09Z"/><path class="cls-28" d="M48.1,133.66c.09,3,.21,5.91.37,8.66a71.72,71.72,0,0,1,11.79-5.62l3.15-7.45Z"/><path class="cls-28" d="M48.1,133.66c.09,3,.21,5.91.37,8.66a71.72,71.72,0,0,1,11.79-5.62l3.15-7.45Z"/><path class="cls-29" d="M89.78,97.1l-.47-.51L88.8,98Z"/><path class="cls-29" d="M89.78,97.1l-.47-.51L88.8,98Z"/><path class="cls-30" d="M95.52,85.37q.26,1,.54,1.94c.3,1,.6,2.1.82,3.16l8.52-8Z"/><path class="cls-30" d="M95.52,85.37q.26,1,.54,1.94c.3,1,.6,2.1.82,3.16l8.52-8Z"/><path class="cls-31" d="M105.39,82.5,94.22,79.41a52,52,0,0,0,1.3,6Z"/><path class="cls-31" d="M105.39,82.5,94.22,79.41a52,52,0,0,0,1.3,6Z"/><path class="cls-32" d="M48.1,133.66l15.32-4.41L48,127.92C48,129.87,48,131.78,48.1,133.66Z"/><path class="cls-32" d="M48.1,133.66l15.32-4.41L48,127.92C48,129.87,48,131.78,48.1,133.66Z"/><path class="cls-33" d="M48,127.92l15.42,1.33-7.68-13.37a30.08,30.08,0,0,0-7.66,3.42C48,122.19,48,125.09,48,127.92Z"/><path class="cls-33" d="M48,127.92l15.42,1.33-7.68-13.37a30.08,30.08,0,0,0-7.66,3.42C48,122.19,48,125.09,48,127.92Z"/><path class="cls-34" d="M60.26,136.7a55.31,55.31,0,0,1,6.93-2l.49-.1-4.26-5.38Z"/><path class="cls-34" d="M60.26,136.7a55.31,55.31,0,0,1,6.93-2l.49-.1-4.26-5.38Z"/><path class="cls-35" d="M137.19,126.44l-21.36,7.63a83.41,83.41,0,0,0,12.1-1.41c3-1.51,5.77-3,8.41-4.53Z"/><path class="cls-35" d="M137.19,126.44l-21.36,7.63a83.41,83.41,0,0,0,12.1-1.41c3-1.51,5.77-3,8.41-4.53Z"/><path class="cls-36" d="M63.41,129.25l4.26,5.38a75.89,75.89,0,0,1,7.63-1.21l-2-10.93Z"/><path class="cls-36" d="M63.41,129.25l4.26,5.38a75.89,75.89,0,0,1,7.63-1.21l-2-10.93Z"/><path class="cls-37" d="M138.39,126.94a78,78,0,0,0,12.8-9l.62-2.19-.23-.06a12.75,12.75,0,0,0-5.23.41l-9.15,10.37Z"/><path class="cls-37" d="M138.39,126.94a78,78,0,0,0,12.8-9l.62-2.19-.23-.06a12.75,12.75,0,0,0-5.23.41l-9.15,10.37Z"/><path class="cls-38" d="M152.79,116.34a1.72,1.72,0,0,0-1-.62l-.62,2.19Q152.05,117.12,152.79,116.34Z"/><path class="cls-38" d="M152.79,116.34a1.72,1.72,0,0,0-1-.62l-.62,2.19Q152.05,117.12,152.79,116.34Z"/><path class="cls-39" d="M146.34,116.07c-2,.47-4.21,1.19-6.53,2l-2.62,8.37Z"/><path class="cls-39" d="M146.34,116.07c-2,.47-4.21,1.19-6.53,2l-2.62,8.37Z"/><path class="cls-40" d="M90.52,102.27l-1.73,2a31.56,31.56,0,0,1,4.46,1.15Z"/><path class="cls-40" d="M90.52,102.27l-1.73,2a31.56,31.56,0,0,1,4.46,1.15Z"/><path class="cls-41" d="M84,116.59c-1.59-.38-3.19-.73-4.79-1l-5.93,6.95Z"/><path class="cls-41" d="M84,116.59c-1.59-.38-3.19-.73-4.79-1l-5.93,6.95Z"/><path class="cls-42" d="M139.81,118.06c-4.24,1.47-8.79,3.2-12.76,4.13l10.14,4.24Z"/><path class="cls-42" d="M139.81,118.06c-4.24,1.47-8.79,3.2-12.76,4.13l10.14,4.24Z"/><path class="cls-43" d="M121.64,103.81,99.31,109a13.54,13.54,0,0,0,.68,1.93l3.62,1.51C108.56,108.17,116,107.34,121.64,103.81Z"/><path class="cls-43" d="M121.64,103.81,99.31,109a13.54,13.54,0,0,0,.68,1.93l3.62,1.51C108.56,108.17,116,107.34,121.64,103.81Z"/><path class="cls-44" d="M93.25,105.45A32.31,32.31,0,0,1,97.1,107l-3.17-4.54c-.57-.81-1.14-1.63-1.74-2.43l-1.66,2.21Z"/><path class="cls-44" d="M93.25,105.45A32.31,32.31,0,0,1,97.1,107l-3.17-4.54c-.57-.81-1.14-1.63-1.74-2.43l-1.66,2.21Z"/><path class="cls-45" d="M97.16,93.44a8.67,8.67,0,0,1-.1,1.09l6.46-8.71c.49-.67,1-1.34,1.46-2l.41-1.29Z"/><path class="cls-45" d="M97.16,93.44a8.67,8.67,0,0,1-.1,1.09l6.46-8.71c.49-.67,1-1.34,1.46-2l.41-1.29Z"/><path class="cls-46" d="M98.91,102.64c0,.09,0,.18,0,.26l2.66-8.35A25.64,25.64,0,0,0,98.91,102.64Z"/><path class="cls-46" d="M98.91,102.64c0,.09,0,.18,0,.26l2.66-8.35A25.64,25.64,0,0,0,98.91,102.64Z"/><path class="cls-47" d="M124,102.08a19.93,19.93,0,0,0,5.23-8.27l-30,14.56q.07.29.14.58l22.33-5.14A17.2,17.2,0,0,0,124,102.08Z"/><path class="cls-47" d="M124,102.08a19.93,19.93,0,0,0,5.23-8.27l-30,14.56q.07.29.14.58l22.33-5.14A17.2,17.2,0,0,0,124,102.08Z"/><path class="cls-48" d="M105,83.8c.28-.4.54-.81.79-1.23l-.38-.06Z"/><path class="cls-48" d="M105,83.8c.28-.4.54-.81.79-1.23l-.38-.06Z"/><path class="cls-49" d="M131.08,86.74l-21.22-3.5a29.9,29.9,0,0,0-6.57,8.14c-.61,1-1.2,2.09-1.74,3.17l-2.66,8.35a16.38,16.38,0,0,0,.28,5.47l30-14.56A49.09,49.09,0,0,0,131.08,86.74Z"/><path class="cls-49" d="M131.08,86.74l-21.22-3.5a29.9,29.9,0,0,0-6.57,8.14c-.61,1-1.2,2.09-1.74,3.17l-2.66,8.35a16.38,16.38,0,0,0,.28,5.47l30-14.56A49.09,49.09,0,0,0,131.08,86.74Z"/><path class="cls-50" d="M84,116.59,73.27,122.5l2,10.93a78.28,78.28,0,0,1,9.85-.39l7.08-14.32C89.49,118,86.74,117.24,84,116.59Z"/><path class="cls-50" d="M84,116.59,73.27,122.5l2,10.93a78.28,78.28,0,0,1,9.85-.39l7.08-14.32C89.49,118,86.74,117.24,84,116.59Z"/><path class="cls-51" d="M103.61,112.4,100,110.89a11.63,11.63,0,0,0,2,3.12A14,14,0,0,1,103.61,112.4Z"/><path class="cls-51" d="M103.61,112.4,100,110.89a11.63,11.63,0,0,0,2,3.12A14,14,0,0,1,103.61,112.4Z"/><path class="cls-52" d="M127.05,122.2l-.55.13c-9.07,2-18.54.41-27.55-1.84-2.25-.56-4.48-1.16-6.72-1.77L85.16,133c6.71.13,12.88,1,19.89,1.12,3.58.09,7.19.09,10.79-.09l21.36-7.63Z"/><path class="cls-52" d="M127.05,122.2l-.55.13c-9.07,2-18.54.41-27.55-1.84-2.25-.56-4.48-1.16-6.72-1.77L85.16,133c6.71.13,12.88,1,19.89,1.12,3.58.09,7.19.09,10.79-.09l21.36-7.63Z"/><path class="cls-53" d="M59.91,92.06a11.85,11.85,0,0,1,4.2,1.26l5.1-2.94A63.68,63.68,0,0,0,59.91,92.06Z"/><path class="cls-53" d="M59.91,92.06a11.85,11.85,0,0,1,4.2,1.26l5.1-2.94A63.68,63.68,0,0,0,59.91,92.06Z"/><path class="cls-54" d="M71.37,90.25c-.72,0-1.44.07-2.16.14l-5.1,2.94c3.61,1.81,6.67,5.1,10.14,7.47l1.08-.07Z"/><path class="cls-54" d="M71.37,90.25c-.72,0-1.44.07-2.16.14l-5.1,2.94c3.61,1.81,6.67,5.1,10.14,7.47l1.08-.07Z"/><path class="cls-55" d="M88.8,98l-16-7.8q-.73,0-1.47,0l4,10.47Z"/><path class="cls-55" d="M88.8,98l-16-7.8q-.73,0-1.47,0l4,10.47Z"/><path class="cls-56" d="M89.31,96.58a20.4,20.4,0,0,0-1.94-1.78,22.84,22.84,0,0,0-13.31-4.56c-.41,0-.82,0-1.22,0l16,7.8Z"/><path class="cls-56" d="M89.31,96.58a20.4,20.4,0,0,0-1.94-1.78,22.84,22.84,0,0,0-13.31-4.56c-.41,0-.82,0-1.22,0l16,7.8Z"/><text class="cls-57" transform="translate(53 163.45)">IT’S N<tspan class="cls-58" x="38.17" y="0">A</tspan><tspan x="45.95" y="0">TURAL</tspan></text></svg>